<?xml version="1.0" encoding="iso-8859-1"?>
<!-- Uploaded to: SVG Repo, www.svgrepo.com, Generator: SVG Repo Mixer Tools -->
<!DOCTYPE svg PUBLIC "-//W3C//DTD SVG 1.1//EN" "http://www.w3.org/Graphics/SVG/1.1/DTD/svg11.dtd">
<svg fill="#000000" version="1.1" id="Capa_1" xmlns="http://www.w3.org/2000/svg" xmlns:xlink="http://www.w3.org/1999/xlink" 
	 width="800px" height="800px" viewBox="0 0 471.269 471.269"
	 xml:space="preserve">
<g>
	<g id="Layer_8_63_">
		<path d="M9.753,173.05C44.249,64.794,160.401,4.786,268.652,39.292c95.652,30.471,153.588,124.707,141.999,220.906
			c-0.346,4.454-5.805,30.423-8.23,37.997l-7.005,21.109l70.251-4.761c2.354-0.164,4.53,1.259,5.309,3.48
			c0.384,1.127,0.384,2.281,0.037,3.349c-0.334,1.084-1.013,2.036-1.997,2.703l-133.31,92.553c-1.329,0.931-3.021,1.183-4.58,0.69
			c-1.56-0.504-2.779-1.686-3.343-3.218l-55.18-152.592c-0.804-2.222-0.011-4.715,1.915-6.063c1.927-1.356,4.527-1.285,6.358,0.219
			l54.534,44.521l9.335-29.275c18.561-72.832-22.621-148.661-95.167-171.774c-75.266-23.989-156.011,17.729-179.992,92.991
			c-23.988,75.265,17.721,156.009,92.997,179.995c24.895,7.933,51.394,8.95,76.643,2.909l14.592,61.09
			c-36.362,8.689-74.507,7.256-110.301-4.159C35.248,397.457-24.758,281.313,9.753,173.05z M198.009,110.778
			c-5.991,0-10.858,4.86-10.858,10.862v145.424c0,4.038,2.241,7.749,5.813,9.62c1.583,0.82,3.313,1.248,5.04,1.248
			c2.167,0,4.32-0.641,6.168-1.927l98.365-67.957c4.935-3.401,6.182-10.165,2.768-15.104c-3.398-4.913-10.154-6.15-15.104-2.755
			l-81.338,56.184v-124.74C208.863,115.638,204.004,110.778,198.009,110.778z"/>
	</g>
</g>
</svg>