<?xml version="1.0" encoding="iso-8859-1"?>
<!-- Uploaded to: SVG Repo, www.svgrepo.com, Generator: SVG Repo Mixer Tools -->
<!DOCTYPE svg PUBLIC "-//W3C//DTD SVG 1.1//EN" "http://www.w3.org/Graphics/SVG/1.1/DTD/svg11.dtd">
<svg fill="#000000" version="1.1" id="Capa_1" xmlns="http://www.w3.org/2000/svg" xmlns:xlink="http://www.w3.org/1999/xlink" 
	 width="800px" height="800px" viewBox="0 0 509.058 509.058"
	 xml:space="preserve">
<g>
	<g id="Layer_8_10_">
		<path d="M354.024,466.595c-38.668,12.329-79.86,13.878-119.149,4.486l15.764-65.982c27.261,6.525,55.88,5.432,82.78-3.139
			c81.32-25.906,126.366-113.126,100.453-194.432c-25.889-81.291-113.114-126.354-194.411-100.441
			c-78.365,24.967-122.867,106.875-102.806,185.548l10.084,31.628l58.907-48.096c1.98-1.625,4.788-1.702,6.868-0.236
			c2.086,1.46,2.926,4.149,2.069,6.549l-59.599,164.834c-0.614,1.648-1.927,2.926-3.617,3.47c-1.679,0.538-3.511,0.26-4.947-0.745
			L2.435,350.069c-1.07-0.721-1.797-1.75-2.157-2.92c-0.373-1.152-0.378-2.399,0.035-3.617c0.846-2.4,3.192-3.937,5.733-3.76
			l75.883,5.143l-7.56-22.804c-2.613-8.187-8.517-36.232-8.89-41.044C52.954,177.156,115.537,75.364,218.857,42.45
			c116.933-37.273,242.4,27.547,279.668,144.483C535.799,303.877,470.981,429.333,354.024,466.595z M286.399,119.668
			c-6.478,0-11.732,5.249-11.732,11.732v157.085c0,4.362,2.417,8.369,6.283,10.391c1.702,0.887,3.576,1.348,5.438,1.348
			c2.341,0,4.664-0.691,6.667-2.08l106.246-73.406c5.326-3.673,6.674-10.979,2.985-16.313c-3.665-5.308-10.971-6.644-16.308-2.976
			l-87.869,60.689V131.395C298.109,124.917,292.866,119.668,286.399,119.668z"/>
	</g>
</g>
</svg>